#tb 0: 1/25
#media_type 0: video
#codec_id 0: h264
#dimensions 0: 352x288
#sar 0: 0/1
0,         -1,          0,        1,     3657, 0xbe9304a1
0,          0,          1,        1,     4156, 0x164616a4
0,          1,          2,        1,     3739, 0x711c2cfb
0,          2,          3,        1,     4169, 0x82bdf0e1
0,          3,          4,        1,     3840, 0x4a9c4572
0,          4,          5,        1,     4267, 0x6c84515e
0,          5,          6,        1,     3292, 0x20345d03
0,          6,          7,        1,     4276, 0x1a3f1b71
0,          7,          8,        1,     3358, 0x991c70e4
0,          8,          9,        1,     3986, 0x8c2ca544
0,          9,         10,        1,     3820, 0x1cf8538f
0,         10,         11,        1,     3830, 0x20cf5f17
0,         11,         12,        1,     3901, 0xc8f07b4f
0,         12,         13,        1,     3570, 0x2a30bc5b
0,         13,         14,        1,     3993, 0xab78add1
0,         14,         15,        1,     3601, 0x34e3ed92
0,         15,         16,        1,     3986, 0x844ea31e
0,         16,         17,        1,     3670, 0xc6c81986
0,         17,         18,        1,     4112, 0x8480e3bc
0,         18,         19,        1,     3001, 0xa6c5e9b3
0,         19,         20,        1,     4163, 0xe5c5096c
0,         20,         21,        1,     3031, 0x8b96b64e
0,         21,         22,        1,     4216, 0xa04b26da
0,         22,         23,        1,     3079, 0xeeb5ea6e
0,         23,         24,        1,     4314, 0x68113f52
0,         24,         25,        1,     2812, 0x9acb42ed
0,         25,         26,        1,     3865, 0x6c0a7072
0,         26,         27,        1,     3491, 0x60f0b793
0,         27,         28,        1,     3984, 0x9f5ca61f
0,         28,         29,        1,     3234, 0x6c512743
0,         29,         30,        1,     4033, 0xb96acb6a
0,         30,         31,        1,     3270, 0xacd55674
0,         31,         32,        1,     4087, 0x1a0fcd38
0,         32,         33,        1,     2952, 0x4673b402
0,         33,         34,        1,     4120, 0xc42fe4bc
0,         34,         35,        1,     2586, 0x04ecf278
0,         35,         36,        1,     3369, 0x554681bb
0,         36,         37,        1,     3371, 0x5c3c8c62
0,         37,         38,        1,     3402, 0x8b6e7a7e
0,         38,         39,        1,     3432, 0x3aea8d33
0,         39,         40,        1,     3445, 0x861eb3a5
0,         40,         41,        1,     3448, 0xfb26a6d5
0,         41,         42,        1,     3457, 0x681ba865
0,         42,         43,        1,     3484, 0xb75ddd8c
0,         43,         44,        1,     3474, 0x17cfc0b6
0,         44,         45,        1,     3485, 0xe702b1b3
0,         45,         46,        1,     3471, 0x0358a577
0,         46,         47,        1,     3449, 0x2e827b4f
0,         47,         48,        1,     3537, 0x80d7eabc
0,         48,         49,        1,     3119, 0x2bf210cb
